<svg width="32" height="32" viewBox="0 0 32 32" fill="none" xmlns="http://www.w3.org/2000/svg">
<rect width="32" height="32" rx="10" fill="#E3E9FD"/>
<path d="M19.491 7.66602H12.5077C9.47435 7.66602 7.66602 9.47435 7.66602 12.5077V19.4827C7.66602 22.5243 9.47435 24.3327 12.5077 24.3327H19.4827C22.516 24.3327 24.3243 22.5243 24.3243 19.491V12.5077C24.3327 9.47435 22.5243 7.66602 19.491 7.66602ZM15.1243 20.591C14.8827 20.8327 14.4243 21.066 14.091 21.116L12.041 21.4077C11.966 21.416 11.891 21.4243 11.816 21.4243C11.4743 21.4243 11.1577 21.3077 10.9327 21.0827C10.6577 20.8077 10.541 20.4077 10.6077 19.966L10.8993 17.916C10.9493 17.5743 11.1743 17.1243 11.4243 16.8827L15.141 13.166C15.2077 13.341 15.2743 13.516 15.366 13.716C15.4493 13.891 15.541 14.0743 15.641 14.241C15.7243 14.3827 15.816 14.516 15.891 14.616C15.9827 14.7577 16.091 14.891 16.1577 14.966C16.1993 15.0243 16.2327 15.066 16.2493 15.0827C16.4577 15.3327 16.6993 15.566 16.9077 15.741C16.966 15.7993 16.9993 15.8327 17.016 15.841C17.141 15.941 17.266 16.041 17.3743 16.116C17.5077 16.216 17.641 16.3077 17.7827 16.3827C17.9493 16.4827 18.1327 16.5743 18.316 16.666C18.5077 16.7493 18.6827 16.8243 18.8577 16.8827L15.1243 20.591ZM20.4743 15.241L19.7077 16.016C19.6577 16.066 19.591 16.091 19.5243 16.091C19.4993 16.091 19.466 16.091 19.4493 16.0827C17.7577 15.5993 16.4077 14.2493 15.9243 12.5577C15.8993 12.466 15.9243 12.366 15.991 12.3077L16.766 11.5327C18.0327 10.266 19.241 10.291 20.4827 11.5327C21.116 12.166 21.4243 12.7743 21.4243 13.4077C21.416 14.0077 21.1077 14.6077 20.4743 15.241Z" fill="#7389FF"/>
</svg>
