<svg width="202" height="56" viewBox="0 0 202 56" fill="none" xmlns="http://www.w3.org/2000/svg">
<rect width="202" height="56" rx="16" fill="#F2F6FF"/>
<path d="M52.5629 34.8162C52.4952 36.3846 52.2078 37.7939 51.7006 39.0441C51.1933 40.3056 50.4944 41.3739 49.6039 42.2491C48.7134 43.1356 47.6369 43.8175 46.3744 44.2948C45.1119 44.7721 43.686 45.0108 42.0966 45.0108H40V40.7659H42.0966C43.1788 40.7659 44.1144 40.6523 44.9034 40.4249C45.6925 40.1976 46.3406 39.834 46.8479 39.3339C47.3551 38.8338 47.7327 38.1803 47.9807 37.3734C48.2287 36.5778 48.3527 35.6061 48.3527 34.4582V24.0761H52.5629V34.8162ZM47.2199 16.6944L50.2633 13.5917L53.3745 16.7285L50.2972 19.8312L47.2199 16.6944Z" fill="#526EFF"/>
<path d="M61.0333 35.8561H56.8231V11.2732H61.0333V35.8561Z" fill="#526EFF"/>
<path d="M72.8649 35.8732C72.4365 35.8732 72.0138 35.8505 71.5968 35.805C71.1797 35.7595 70.757 35.697 70.3286 35.6175C69.9003 35.5379 69.4607 35.4413 69.0098 35.3277C68.5589 35.2026 68.0855 35.0663 67.5895 34.9185L65.5774 34.3048L66.7948 30.2133C67.7755 30.5543 68.79 30.8554 69.8383 31.1168C70.8979 31.3782 71.8955 31.5487 72.8311 31.6283C73.1354 31.651 73.4285 31.6624 73.7103 31.6624C74.2739 31.6624 74.8375 31.5999 75.4011 31.4748C75.976 31.3498 76.3818 31.0373 76.6185 30.5372C76.6636 30.4463 76.6862 30.3383 76.6862 30.2133C76.6862 30.1338 76.6636 30.0087 76.6185 29.8383C76.5734 29.6678 76.4607 29.4518 76.2804 29.1904L69.9736 19.9164L73.5243 17.5979L74.6741 19.3879C74.6741 19.3993 74.691 19.4334 74.7248 19.4902C74.7699 19.5471 74.8488 19.6664 74.9615 19.8482C75.0855 20.0301 75.2546 20.2915 75.4688 20.6324C75.6942 20.962 75.9873 21.3996 76.348 21.9451C76.7087 22.4906 77.1483 23.1669 77.6668 23.9738C78.1966 24.7694 78.8279 25.724 79.5606 26.8378C80.1355 27.713 80.4905 28.6165 80.6258 29.5484C80.6596 29.7871 80.6765 30.0201 80.6765 30.2474C80.6765 30.9293 80.5413 31.5828 80.2707 32.2079C80.0791 32.6625 79.8198 33.083 79.4929 33.4694C79.1773 33.8445 78.8053 34.1798 78.377 34.4753C77.5767 35.0322 76.6129 35.4129 75.4857 35.6175C74.5388 35.7879 73.6652 35.8732 72.8649 35.8732Z" fill="#526EFF"/>
<path d="M94.2865 35.8561H93.644C93.1819 35.8561 92.7422 35.8277 92.3252 35.7709C91.9194 35.7141 91.5192 35.555 91.1247 35.2936C90.9894 36.7597 90.6569 38.0894 90.1271 39.2827C89.5973 40.4761 88.8871 41.4933 87.9966 42.3343C87.1174 43.1867 86.0635 43.8459 84.8348 44.3119C83.6061 44.7778 82.2253 45.0108 80.6922 45.0108H78.5787V40.7659H80.6922C81.7744 40.7659 82.71 40.6523 83.499 40.4249C84.2881 40.1976 84.9362 39.834 85.4435 39.3339C85.9507 38.8338 86.3284 38.1803 86.5763 37.3734C86.8243 36.5778 86.9483 35.6061 86.9483 34.4582V24.0761H91.1585V29.1734C91.1585 29.6962 91.2656 30.1167 91.4798 30.4349C91.7052 30.7532 91.9588 31.0032 92.2406 31.185C92.5337 31.3555 92.8155 31.4692 93.086 31.526C93.3566 31.5828 93.5426 31.6112 93.644 31.6112H94.2865V35.8561Z" fill="#526EFF"/>
<path d="M106.17 21.536C106.192 21.6155 106.237 21.8031 106.305 22.0985C106.384 22.394 106.468 22.7577 106.558 23.1896C106.649 23.6101 106.739 24.0818 106.829 24.6046C106.93 25.1274 107.021 25.6559 107.099 26.19C107.19 26.7128 107.257 27.2243 107.302 27.7243C107.359 28.2244 107.387 28.662 107.387 29.037C107.387 30.2076 107.195 31.2248 106.812 32.0886C106.429 32.941 105.927 33.6456 105.307 34.2025C104.687 34.7594 103.988 35.1742 103.211 35.447C102.444 35.7198 101.672 35.8561 100.894 35.8561H93.6066V31.6112H101.012C101.148 31.6112 101.339 31.5942 101.587 31.5601C101.847 31.5146 102.1 31.4067 102.348 31.2362C102.607 31.0657 102.833 30.81 103.025 30.469C103.216 30.1167 103.312 29.6394 103.312 29.037C103.312 28.787 103.289 28.4858 103.244 28.1335C103.211 27.7698 103.16 27.3834 103.092 26.9742C103.025 26.5651 102.946 26.1502 102.855 25.7297C102.777 25.2979 102.698 24.8944 102.619 24.5193C102.54 24.1329 102.461 23.7863 102.382 23.4794C102.303 23.1612 102.241 22.9168 102.196 22.7464L106.17 21.536ZM94.469 41.4649L97.3434 38.5667L100.218 41.499L97.3434 44.3971L94.469 41.4649ZM101.52 41.499L104.428 38.6008L107.302 41.5331L104.428 44.4312L101.52 41.499ZM98.155 46.2724L100.826 43.5788L103.532 46.3064L100.86 49L98.155 46.2724Z" fill="#526EFF"/>
<path d="M113.176 40.7659C114.078 40.7659 114.878 40.7318 115.577 40.6636C116.287 40.6068 116.913 40.5159 117.454 40.3909C118.006 40.2772 118.485 40.1238 118.891 39.9306C119.308 39.7487 119.669 39.5271 119.973 39.2657C120.447 38.8793 120.802 38.4304 121.038 37.9189C121.286 37.4075 121.433 36.7199 121.478 35.8561H118.874C118.311 35.8561 117.736 35.8107 117.149 35.7198C116.563 35.6288 116 35.4754 115.459 35.2595C114.918 35.0322 114.405 34.7423 113.92 34.39C113.447 34.0377 113.029 33.6058 112.669 33.0944C112.319 32.5716 112.038 31.9579 111.823 31.2532C111.62 30.5486 111.519 29.7416 111.519 28.8324C111.519 28.0482 111.587 27.355 111.722 26.7526C111.857 26.1389 112.026 25.599 112.229 25.1331C112.443 24.6671 112.68 24.2636 112.939 23.9227C113.199 23.5703 113.447 23.2635 113.683 23.0021C114.36 22.3202 115.126 21.7974 115.983 21.4337C116.84 21.0586 117.764 20.8711 118.756 20.8711C119.984 20.8711 121.033 21.087 121.901 21.5189C122.78 21.9394 123.496 22.5247 124.048 23.2748C124.612 24.0249 125.023 24.9171 125.282 25.9514C125.542 26.9742 125.671 28.088 125.671 29.2927V31.6112H128.546V35.8561H125.654C125.609 37.4132 125.333 38.7259 124.826 39.7942C124.33 40.8625 123.586 41.7945 122.594 42.59C122.075 42.9992 121.512 43.3515 120.903 43.647C120.294 43.9538 119.612 44.2096 118.857 44.4141C118.102 44.6187 117.257 44.7665 116.321 44.8574C115.397 44.9597 114.348 45.0108 113.176 45.0108V40.7659ZM118.756 25.116C117.798 25.116 117.037 25.4172 116.473 26.0195C115.91 26.6219 115.628 27.5595 115.628 28.8324C115.628 29.3325 115.724 29.7587 115.915 30.111C116.118 30.4633 116.372 30.7532 116.676 30.9805C116.992 31.1964 117.341 31.3555 117.724 31.4578C118.108 31.5601 118.491 31.6112 118.874 31.6112H121.478V29.2927C121.478 28.6449 121.427 28.0937 121.326 27.6391C121.224 27.1731 121.089 26.7867 120.92 26.4798C120.762 26.173 120.576 25.9286 120.362 25.7468C120.159 25.5649 119.956 25.4286 119.753 25.3376C119.562 25.2467 119.376 25.1899 119.195 25.1672C119.015 25.1331 118.869 25.116 118.756 25.116Z" fill="#526EFF"/>
<path d="M127.717 35.8561V31.6112H137.609C137.789 31.6112 138.037 31.6055 138.353 31.5942C138.668 31.5714 138.978 31.526 139.282 31.4578C139.587 31.3782 139.846 31.2703 140.06 31.1339C140.286 30.9861 140.398 30.7873 140.398 30.5372C140.398 30.0485 140.212 29.4575 139.84 28.7642C139.48 28.071 139.012 27.3322 138.437 26.548C137.862 25.7638 137.214 24.9739 136.493 24.1784C135.782 23.3714 135.072 22.6157 134.362 21.911C133.663 21.195 133.004 20.5642 132.384 20.0187C131.764 19.4732 131.268 19.064 130.896 18.7913L131.234 14.9385L145.944 8.15343L147.483 11.8699L135.106 17.3763C135.534 17.7968 136.014 18.2742 136.543 18.8083C137.084 19.3425 137.637 19.9107 138.2 20.5131C138.764 21.1041 139.322 21.7235 139.874 22.3713C140.438 23.0078 140.962 23.6499 141.447 24.2977C141.943 24.9342 142.382 25.5593 142.766 26.173C143.149 26.7867 143.448 27.3663 143.662 27.9119C143.853 28.3892 143.989 28.8495 144.068 29.2927C144.146 29.736 144.186 30.1394 144.186 30.5031C144.186 30.9577 144.141 31.3555 144.051 31.6965C143.972 32.0374 143.882 32.3272 143.78 32.5659C143.645 32.8728 143.436 33.2194 143.154 33.6058C142.873 33.9922 142.478 34.3502 141.971 34.6798C141.475 35.0094 140.844 35.2879 140.077 35.5152C139.322 35.7425 138.403 35.8561 137.321 35.8561H127.717Z" fill="#526EFF"/>
<path d="M161.113 35.8561H156.903V13.7792H161.113V35.8561ZM166 11.3243H157.715C157.05 11.3243 156.486 11.3471 156.024 11.3925C155.573 11.4266 155.184 11.5289 154.857 11.6994C154.542 11.8585 154.277 12.0972 154.063 12.4154C153.86 12.7222 153.674 13.1484 153.505 13.694L150.36 12.7563C150.653 11.7335 151.053 10.8981 151.56 10.2503C152.068 9.6025 152.676 9.09674 153.386 8.73306C153.995 8.43756 154.655 8.24435 155.365 8.15343C156.075 8.05114 156.858 8 157.715 8H166V11.3243Z" fill="#526EFF"/>
</svg>
